{"title":"One Piece - 634 [HD 720p] [ENG SUBBED] [GWC].mp4","uid":9657651,"size":92826078,"categoryP":"video","categoryS":"tv_shows","magnet":"?xt=urn:btih:15fdee3ca4687e740d34fd7b98614bd051d85917&amp;dn=One+Piece+-+634+%5BHD+720p%5D+%5BENG+SUBBED%5D+%5BGWC%5D.mp4&amp;tr=udp%3A%2F%2Ftracker.openbittorrent.com%3A80&amp;tr=udp%3A%2F%2Fopen.demonii.com%3A1337&amp;tr=udp%3A%2F%2Ftracker.coppersurfer.tk%3A6969&amp;tr=udp%3A%2F%2Fexodus.desync.com%3A6969","seeders":1,"leechers":0,"uploader":"canc232","files":1,"time":1393219216,"description":"One Piece - 634 [HD 720p] [ENG SUBBED] [GWC] \n\n\nTHUMBNAIL IMAGE : &lt;a href=&quot;\nhttp://img543.imageshack.us/img543/4559/dpnb.jpg&quot; rel=&quot;nofollow&quot; target=&quot;_NEW&quot;&gt;\nhttp://img543.imageshack.us/img543/4559/dpnb.jpg&lt;/a&gt;\n\n\nMEDIA INFO :\nGeneral  \nFormat : MPEG-4 \nFormat profile : Base Media \nFile size : 88.5 MiB \nDuration : 20mn 38s \nOverall bit rate mode : Variable \nOverall bit rate : 600 Kbps \n\nVideo \nFormat : AVC \nFormat profile : &lt;a class=&quot;__cf_email__&quot; href=&quot;/cdn-cgi/l/email-protection&quot; data-cfemail=&quot;8cc4e5ebe4ccc0b8a2bd&quot;&gt;[email&amp;#160;protected]&lt;/a&gt;&lt;script cf-hash='f9e31' type=&quot;text/javascript&quot;&gt;\n/* &lt;![CDATA[ */!function(){try{var t=&quot;currentScript&quot;in document?document.currentScript:function(){for(var t=document.getElementsByTagName(&quot;script&quot;),e=t.length;e--;)if(t[e].getAttribute(&quot;cf-hash&quot;))return t[e]}();if(t&amp;&amp;t.previousSibling){var e,r,n,i,c=t.previousSibling,a=c.getAttribute(&quot;data-cfemail&quot;);if(a){for(e=&quot;&quot;,r=parseInt(a.substr(0,2),16),n=2;a.length-n;n+=2)i=parseInt(a.substr(n,2),16)^r,e+=String.fromCharCode(i);e=document.createTextNode(e),c.parentNode.replaceChild(e,c)}}}catch(u){}}();/* ]]&gt; */&lt;/script&gt; \nFormat settings, CABAC : Yes \nFormat settings, ReFrames : 11 frames \nDuration : 20mn 38s \nBit rate : 541 Kbps \nMaximum bit rate : 3 221 Kbps \nWidth : 1 280 pixels \nHeight : 720 pixels \nDisplay aspect ratio : 16:9 \nFrame rate mode : Variable \nFrame rate : 29.970 fps \nStream size : 79.8 MiB (90%) \nTitle : One Piece - 634 [HD 720p] [ENG SUBBED] [GWC] \nLanguage : English \n\nAudio \nFormat : AAC \nFormat profile : HE-AAC / LC \nDuration : 20mn 37s \nBit rate mode : Variable \nChannel(s) : 2 channels / 2 channels \nChannel positions : Front: L R / Front: L R \nSampling rate : 44.1 KHz / 44.1 KHz \nStream size : 7.97 MiB (9%) \nLanguage : Japanese \n\nText \nFormat : Timed Text \nDuration : 20mn 32s \nLanguage : English","torrent":{"xt":"urn:btih:15fdee3ca4687e740d34fd7b98614bd051d85917","amp;dn":"One+Piece+-+634+%5BHD+720p%5D+%5BENG+SUBBED%5D+%5BGWC%5D.mp4","amp;tr":["udp%3A%2F%2Ftracker.openbittorrent.com%3A80","udp%3A%2F%2Fopen.demonii.com%3A1337","udp%3A%2F%2Ftracker.coppersurfer.tk%3A6969","udp%3A%2F%2Fexodus.desync.com%3A6969"],"infoHash":"15fdee3ca4687e740d34fd7b98614bd051d85917","infoHashBuffer":{"type":"Buffer","data":[21,253,238,60,164,104,126,116,13,52,253,123,152,97,75,208,81,216,89,23]},"announce":[],"urlList":[]}}